<svg width="24" height="24" viewBox="0 0 24 24" fill="none" xmlns="http://www.w3.org/2000/svg">
<rect width="24" height="24" fill="white"/>
<path d="M13.2301 18.36C12.1368 18.36 11.3701 18.0467 10.9301 17.42C10.4901 16.78 10.2701 15.9533 10.2701 14.94V9.96001H8.8501V8.44001L10.3701 8.34001L10.6101 5.64001H12.2901V8.34001H14.8501V9.96001H12.2901V14.96C12.2901 15.5333 12.4034 15.9733 12.6301 16.28C12.8568 16.5867 13.2234 16.74 13.7301 16.74C13.9034 16.74 14.0834 16.72 14.2701 16.68C14.4701 16.6267 14.6434 16.5667 14.7901 16.5L15.1501 18C14.8834 18.0933 14.5834 18.1733 14.2501 18.24C13.9168 18.32 13.5768 18.36 13.2301 18.36Z" fill="#FF0000"/>
</svg>
