<svg width="24" height="24" viewBox="0 0 24 24" fill="none" xmlns="http://www.w3.org/2000/svg">
<rect width="24" height="24" fill="white"/>
<path d="M9.552 14.91L11.472 11.874L9.696 9.09H10.644L11.46 10.422C11.556 10.582 11.652 10.742 11.748 10.902C11.852 11.062 11.952 11.222 12.048 11.382H12.096C12.192 11.222 12.284 11.062 12.372 10.902C12.46 10.742 12.548 10.582 12.636 10.422L13.392 9.09H14.304L12.54 11.958L14.448 14.91H13.5L12.6 13.494C12.504 13.318 12.4 13.142 12.288 12.966C12.176 12.79 12.068 12.618 11.964 12.45H11.916C11.812 12.618 11.708 12.79 11.604 12.966C11.508 13.142 11.408 13.318 11.304 13.494L10.464 14.91H9.552Z" fill="#FF0000"/>
</svg>
